<mxfile host="app.diagrams.net" modified="2022-10-10T10:03:18.288Z" agent="5.0 (Macintosh; Intel Mac OS X 10_15_7) AppleWebKit/537.36 (KHTML, like Gecko) Chrome/99.0.4844.84 Safari/537.36" etag="yntLQ6WsKpWaxTQhD4IL" version="20.2.5" type="github">
  <diagram id="cPVhBnP5LHgAFUG7oPZ6" name="第 1 页">
    <mxGraphModel dx="1178" dy="712" grid="1" gridSize="10" guides="1" tooltips="1" connect="1" arrows="1" fold="1" page="1" pageScale="1" pageWidth="827" pageHeight="1169" math="0" shadow="0">
      <root>
        <mxCell id="0" />
        <mxCell id="1" parent="0" />
        <mxCell id="ZduUOEguYwG-LgPa66Ty-1" value="标品自然人担保流程" style="swimlane;childLayout=stackLayout;resizeParent=1;resizeParentMax=0;startSize=20;" vertex="1" parent="1">
          <mxGeometry x="150" y="30" width="520" height="1050" as="geometry" />
        </mxCell>
        <mxCell id="ZduUOEguYwG-LgPa66Ty-2" value="智惠租" style="swimlane;startSize=20;" vertex="1" parent="ZduUOEguYwG-LgPa66Ty-1">
          <mxGeometry y="20" width="120" height="1030" as="geometry" />
        </mxCell>
        <mxCell id="ZduUOEguYwG-LgPa66Ty-6" value="展示担保二维码" style="rounded=0;whiteSpace=wrap;html=1;" vertex="1" parent="ZduUOEguYwG-LgPa66Ty-2">
          <mxGeometry x="10" y="40" width="100" height="40" as="geometry" />
        </mxCell>
        <mxCell id="ZduUOEguYwG-LgPa66Ty-9" value="页面跳转" style="rounded=0;whiteSpace=wrap;html=1;" vertex="1" parent="ZduUOEguYwG-LgPa66Ty-2">
          <mxGeometry x="10" y="120" width="100" height="40" as="geometry" />
        </mxCell>
        <mxCell id="ZduUOEguYwG-LgPa66Ty-55" value="担保回调页面" style="whiteSpace=wrap;html=1;rounded=0;" vertex="1" parent="ZduUOEguYwG-LgPa66Ty-2">
          <mxGeometry x="20" y="848.75" width="80" height="37.5" as="geometry" />
        </mxCell>
        <mxCell id="ZduUOEguYwG-LgPa66Ty-3" value="标品移动端" style="swimlane;startSize=20;" vertex="1" parent="ZduUOEguYwG-LgPa66Ty-1">
          <mxGeometry x="120" y="20" width="160" height="1030" as="geometry" />
        </mxCell>
        <mxCell id="ZduUOEguYwG-LgPa66Ty-7" value="接口查询登录态" style="rounded=0;whiteSpace=wrap;html=1;" vertex="1" parent="ZduUOEguYwG-LgPa66Ty-3">
          <mxGeometry x="10" y="120" width="100" height="40" as="geometry" />
        </mxCell>
        <mxCell id="ZduUOEguYwG-LgPa66Ty-10" value="京东app、金融app 扫码" style="text;html=1;align=center;verticalAlign=middle;whiteSpace=wrap;rounded=0;fillColor=#fff2cc;strokeColor=none;" vertex="1" parent="ZduUOEguYwG-LgPa66Ty-3">
          <mxGeometry x="20" y="35" width="80" height="50" as="geometry" />
        </mxCell>
        <mxCell id="ZduUOEguYwG-LgPa66Ty-20" value="是否实名" style="rhombus;whiteSpace=wrap;html=1;rounded=0;" vertex="1" parent="ZduUOEguYwG-LgPa66Ty-3">
          <mxGeometry x="20" y="330" width="80" height="80" as="geometry" />
        </mxCell>
        <mxCell id="ZduUOEguYwG-LgPa66Ty-25" value="" style="edgeStyle=orthogonalEdgeStyle;rounded=0;orthogonalLoop=1;jettySize=auto;html=1;entryX=0.5;entryY=0;entryDx=0;entryDy=0;" edge="1" parent="ZduUOEguYwG-LgPa66Ty-3" source="ZduUOEguYwG-LgPa66Ty-20" target="ZduUOEguYwG-LgPa66Ty-26">
          <mxGeometry relative="1" as="geometry">
            <mxPoint x="60" y="450" as="targetPoint" />
          </mxGeometry>
        </mxCell>
        <mxCell id="ZduUOEguYwG-LgPa66Ty-26" value="担保人与当前&lt;br&gt;用户是否一致" style="rhombus;whiteSpace=wrap;html=1;rounded=0;" vertex="1" parent="ZduUOEguYwG-LgPa66Ty-3">
          <mxGeometry y="440" width="120" height="80" as="geometry" />
        </mxCell>
        <mxCell id="ZduUOEguYwG-LgPa66Ty-32" value="否" style="text;html=1;strokeColor=none;fillColor=none;align=center;verticalAlign=middle;whiteSpace=wrap;rounded=0;" vertex="1" parent="ZduUOEguYwG-LgPa66Ty-3">
          <mxGeometry x="91" y="450" width="60" height="30" as="geometry" />
        </mxCell>
        <mxCell id="ZduUOEguYwG-LgPa66Ty-33" value="否" style="text;html=1;strokeColor=none;fillColor=none;align=center;verticalAlign=middle;whiteSpace=wrap;rounded=0;" vertex="1" parent="ZduUOEguYwG-LgPa66Ty-3">
          <mxGeometry x="91" y="340" width="60" height="30" as="geometry" />
        </mxCell>
        <mxCell id="ZduUOEguYwG-LgPa66Ty-34" value="否" style="text;html=1;strokeColor=none;fillColor=none;align=center;verticalAlign=middle;whiteSpace=wrap;rounded=0;" vertex="1" parent="ZduUOEguYwG-LgPa66Ty-3">
          <mxGeometry x="100" y="230" width="60" height="30" as="geometry" />
        </mxCell>
        <mxCell id="ZduUOEguYwG-LgPa66Ty-35" value="是" style="text;html=1;strokeColor=none;fillColor=none;align=center;verticalAlign=middle;whiteSpace=wrap;rounded=0;" vertex="1" parent="ZduUOEguYwG-LgPa66Ty-3">
          <mxGeometry y="300" width="60" height="30" as="geometry" />
        </mxCell>
        <mxCell id="ZduUOEguYwG-LgPa66Ty-36" value="是" style="text;html=1;strokeColor=none;fillColor=none;align=center;verticalAlign=middle;whiteSpace=wrap;rounded=0;" vertex="1" parent="ZduUOEguYwG-LgPa66Ty-3">
          <mxGeometry y="410" width="60" height="30" as="geometry" />
        </mxCell>
        <mxCell id="ZduUOEguYwG-LgPa66Ty-37" value="鉴权" style="whiteSpace=wrap;html=1;rounded=0;" vertex="1" parent="ZduUOEguYwG-LgPa66Ty-3">
          <mxGeometry x="10" y="720" width="100" height="45" as="geometry" />
        </mxCell>
        <mxCell id="ZduUOEguYwG-LgPa66Ty-39" value="是" style="text;html=1;strokeColor=none;fillColor=none;align=center;verticalAlign=middle;whiteSpace=wrap;rounded=0;" vertex="1" parent="ZduUOEguYwG-LgPa66Ty-3">
          <mxGeometry x="-10" y="520" width="60" height="30" as="geometry" />
        </mxCell>
        <mxCell id="ZduUOEguYwG-LgPa66Ty-46" style="edgeStyle=orthogonalEdgeStyle;rounded=0;orthogonalLoop=1;jettySize=auto;html=1;exitX=0.5;exitY=1;exitDx=0;exitDy=0;" edge="1" parent="ZduUOEguYwG-LgPa66Ty-3" source="ZduUOEguYwG-LgPa66Ty-44" target="ZduUOEguYwG-LgPa66Ty-37">
          <mxGeometry relative="1" as="geometry" />
        </mxCell>
        <mxCell id="ZduUOEguYwG-LgPa66Ty-44" value="协议签署" style="whiteSpace=wrap;html=1;rounded=0;" vertex="1" parent="ZduUOEguYwG-LgPa66Ty-3">
          <mxGeometry x="12.5" y="650" width="95" height="40" as="geometry" />
        </mxCell>
        <mxCell id="ZduUOEguYwG-LgPa66Ty-52" value="担保成功页面" style="whiteSpace=wrap;html=1;rounded=0;" vertex="1" parent="ZduUOEguYwG-LgPa66Ty-3">
          <mxGeometry x="10" y="960" width="100" height="37.5" as="geometry" />
        </mxCell>
        <mxCell id="ZduUOEguYwG-LgPa66Ty-57" value="有" style="text;html=1;align=center;verticalAlign=middle;resizable=0;points=[];autosize=1;strokeColor=none;fillColor=none;" vertex="1" parent="ZduUOEguYwG-LgPa66Ty-3">
          <mxGeometry x="-10" y="840" width="40" height="30" as="geometry" />
        </mxCell>
        <mxCell id="ZduUOEguYwG-LgPa66Ty-64" style="edgeStyle=orthogonalEdgeStyle;rounded=0;orthogonalLoop=1;jettySize=auto;html=1;exitX=0.5;exitY=1;exitDx=0;exitDy=0;entryX=0.5;entryY=0;entryDx=0;entryDy=0;" edge="1" parent="ZduUOEguYwG-LgPa66Ty-3" source="ZduUOEguYwG-LgPa66Ty-62" target="ZduUOEguYwG-LgPa66Ty-44">
          <mxGeometry relative="1" as="geometry" />
        </mxCell>
        <mxCell id="ZduUOEguYwG-LgPa66Ty-66" style="edgeStyle=orthogonalEdgeStyle;rounded=0;orthogonalLoop=1;jettySize=auto;html=1;exitX=1;exitY=0.5;exitDx=0;exitDy=0;entryX=1;entryY=0.5;entryDx=0;entryDy=0;" edge="1" parent="ZduUOEguYwG-LgPa66Ty-3" source="ZduUOEguYwG-LgPa66Ty-62" target="ZduUOEguYwG-LgPa66Ty-52">
          <mxGeometry relative="1" as="geometry" />
        </mxCell>
        <mxCell id="ZduUOEguYwG-LgPa66Ty-62" value="是否完成" style="rhombus;whiteSpace=wrap;html=1;rounded=0;" vertex="1" parent="ZduUOEguYwG-LgPa66Ty-3">
          <mxGeometry x="20" y="550" width="80" height="60" as="geometry" />
        </mxCell>
        <mxCell id="ZduUOEguYwG-LgPa66Ty-63" value="" style="edgeStyle=orthogonalEdgeStyle;rounded=0;orthogonalLoop=1;jettySize=auto;html=1;" edge="1" parent="ZduUOEguYwG-LgPa66Ty-3" source="ZduUOEguYwG-LgPa66Ty-26" target="ZduUOEguYwG-LgPa66Ty-62">
          <mxGeometry relative="1" as="geometry" />
        </mxCell>
        <mxCell id="ZduUOEguYwG-LgPa66Ty-67" value="是" style="text;html=1;strokeColor=none;fillColor=none;align=center;verticalAlign=middle;whiteSpace=wrap;rounded=0;" vertex="1" parent="ZduUOEguYwG-LgPa66Ty-3">
          <mxGeometry x="91" y="550" width="60" height="30" as="geometry" />
        </mxCell>
        <mxCell id="ZduUOEguYwG-LgPa66Ty-68" value="否" style="text;html=1;strokeColor=none;fillColor=none;align=center;verticalAlign=middle;whiteSpace=wrap;rounded=0;" vertex="1" parent="ZduUOEguYwG-LgPa66Ty-3">
          <mxGeometry x="10" y="610" width="60" height="30" as="geometry" />
        </mxCell>
        <mxCell id="ZduUOEguYwG-LgPa66Ty-4" value="中台" style="swimlane;startSize=20;" vertex="1" parent="ZduUOEguYwG-LgPa66Ty-1">
          <mxGeometry x="280" y="20" width="120" height="1030" as="geometry" />
        </mxCell>
        <mxCell id="ZduUOEguYwG-LgPa66Ty-14" value="h5登录链接" style="whiteSpace=wrap;html=1;rounded=0;" vertex="1" parent="ZduUOEguYwG-LgPa66Ty-4">
          <mxGeometry x="10" y="240" width="100" height="40" as="geometry" />
        </mxCell>
        <mxCell id="ZduUOEguYwG-LgPa66Ty-22" value="中台实名链接" style="whiteSpace=wrap;html=1;rounded=0;" vertex="1" parent="ZduUOEguYwG-LgPa66Ty-4">
          <mxGeometry x="15" y="350" width="90" height="40" as="geometry" />
        </mxCell>
        <mxCell id="ZduUOEguYwG-LgPa66Ty-40" value="鉴权组件" style="whiteSpace=wrap;html=1;rounded=0;" vertex="1" parent="ZduUOEguYwG-LgPa66Ty-4">
          <mxGeometry x="10" y="720" width="100" height="45" as="geometry" />
        </mxCell>
        <mxCell id="ZduUOEguYwG-LgPa66Ty-5" value="京东app" style="swimlane;startSize=20;" vertex="1" parent="ZduUOEguYwG-LgPa66Ty-1">
          <mxGeometry x="400" y="20" width="120" height="1030" as="geometry" />
        </mxCell>
        <mxCell id="ZduUOEguYwG-LgPa66Ty-16" value="唤起app登录" style="whiteSpace=wrap;html=1;rounded=0;" vertex="1" parent="ZduUOEguYwG-LgPa66Ty-5">
          <mxGeometry x="10" y="240" width="100" height="40" as="geometry" />
        </mxCell>
        <mxCell id="ZduUOEguYwG-LgPa66Ty-30" value="app切换账号" style="whiteSpace=wrap;html=1;rounded=0;" vertex="1" parent="ZduUOEguYwG-LgPa66Ty-5">
          <mxGeometry x="11" y="460" width="100" height="40" as="geometry" />
        </mxCell>
        <mxCell id="ZduUOEguYwG-LgPa66Ty-42" value="app人脸服务" style="whiteSpace=wrap;html=1;rounded=0;" vertex="1" parent="ZduUOEguYwG-LgPa66Ty-5">
          <mxGeometry x="10" y="720" width="100" height="45" as="geometry" />
        </mxCell>
        <mxCell id="ZduUOEguYwG-LgPa66Ty-8" value="" style="edgeStyle=orthogonalEdgeStyle;rounded=0;orthogonalLoop=1;jettySize=auto;html=1;" edge="1" parent="ZduUOEguYwG-LgPa66Ty-1" source="ZduUOEguYwG-LgPa66Ty-6" target="ZduUOEguYwG-LgPa66Ty-7">
          <mxGeometry relative="1" as="geometry" />
        </mxCell>
        <mxCell id="ZduUOEguYwG-LgPa66Ty-11" style="edgeStyle=orthogonalEdgeStyle;rounded=0;orthogonalLoop=1;jettySize=auto;html=1;exitX=1;exitY=0.5;exitDx=0;exitDy=0;entryX=0;entryY=0.5;entryDx=0;entryDy=0;" edge="1" parent="ZduUOEguYwG-LgPa66Ty-1" source="ZduUOEguYwG-LgPa66Ty-9" target="ZduUOEguYwG-LgPa66Ty-7">
          <mxGeometry relative="1" as="geometry" />
        </mxCell>
        <mxCell id="ZduUOEguYwG-LgPa66Ty-17" value="" style="edgeStyle=orthogonalEdgeStyle;rounded=0;orthogonalLoop=1;jettySize=auto;html=1;" edge="1" parent="ZduUOEguYwG-LgPa66Ty-1" source="ZduUOEguYwG-LgPa66Ty-14" target="ZduUOEguYwG-LgPa66Ty-16">
          <mxGeometry relative="1" as="geometry" />
        </mxCell>
        <mxCell id="ZduUOEguYwG-LgPa66Ty-23" value="" style="edgeStyle=orthogonalEdgeStyle;rounded=0;orthogonalLoop=1;jettySize=auto;html=1;" edge="1" parent="ZduUOEguYwG-LgPa66Ty-1" source="ZduUOEguYwG-LgPa66Ty-20" target="ZduUOEguYwG-LgPa66Ty-22">
          <mxGeometry relative="1" as="geometry" />
        </mxCell>
        <mxCell id="ZduUOEguYwG-LgPa66Ty-31" value="" style="edgeStyle=orthogonalEdgeStyle;rounded=0;orthogonalLoop=1;jettySize=auto;html=1;" edge="1" parent="ZduUOEguYwG-LgPa66Ty-1" source="ZduUOEguYwG-LgPa66Ty-26" target="ZduUOEguYwG-LgPa66Ty-30">
          <mxGeometry relative="1" as="geometry" />
        </mxCell>
        <mxCell id="ZduUOEguYwG-LgPa66Ty-41" value="" style="edgeStyle=orthogonalEdgeStyle;rounded=0;orthogonalLoop=1;jettySize=auto;html=1;" edge="1" parent="ZduUOEguYwG-LgPa66Ty-1" source="ZduUOEguYwG-LgPa66Ty-37" target="ZduUOEguYwG-LgPa66Ty-40">
          <mxGeometry relative="1" as="geometry" />
        </mxCell>
        <mxCell id="ZduUOEguYwG-LgPa66Ty-43" value="" style="edgeStyle=orthogonalEdgeStyle;rounded=0;orthogonalLoop=1;jettySize=auto;html=1;" edge="1" parent="ZduUOEguYwG-LgPa66Ty-1" source="ZduUOEguYwG-LgPa66Ty-40" target="ZduUOEguYwG-LgPa66Ty-42">
          <mxGeometry relative="1" as="geometry" />
        </mxCell>
        <mxCell id="ZduUOEguYwG-LgPa66Ty-15" value="" style="edgeStyle=orthogonalEdgeStyle;rounded=0;orthogonalLoop=1;jettySize=auto;html=1;" edge="1" parent="1" source="ZduUOEguYwG-LgPa66Ty-12" target="ZduUOEguYwG-LgPa66Ty-14">
          <mxGeometry relative="1" as="geometry" />
        </mxCell>
        <mxCell id="ZduUOEguYwG-LgPa66Ty-21" value="" style="edgeStyle=orthogonalEdgeStyle;rounded=0;orthogonalLoop=1;jettySize=auto;html=1;" edge="1" parent="1" source="ZduUOEguYwG-LgPa66Ty-12" target="ZduUOEguYwG-LgPa66Ty-20">
          <mxGeometry relative="1" as="geometry" />
        </mxCell>
        <mxCell id="ZduUOEguYwG-LgPa66Ty-12" value="是否登录" style="rhombus;whiteSpace=wrap;html=1;rounded=0;" vertex="1" parent="1">
          <mxGeometry x="290" y="270" width="80" height="80" as="geometry" />
        </mxCell>
        <mxCell id="ZduUOEguYwG-LgPa66Ty-13" value="" style="edgeStyle=orthogonalEdgeStyle;rounded=0;orthogonalLoop=1;jettySize=auto;html=1;" edge="1" parent="1" source="ZduUOEguYwG-LgPa66Ty-7" target="ZduUOEguYwG-LgPa66Ty-12">
          <mxGeometry relative="1" as="geometry" />
        </mxCell>
        <mxCell id="ZduUOEguYwG-LgPa66Ty-53" value="" style="edgeStyle=orthogonalEdgeStyle;rounded=0;orthogonalLoop=1;jettySize=auto;html=1;" edge="1" parent="1" source="ZduUOEguYwG-LgPa66Ty-49" target="ZduUOEguYwG-LgPa66Ty-52">
          <mxGeometry relative="1" as="geometry" />
        </mxCell>
        <mxCell id="ZduUOEguYwG-LgPa66Ty-56" value="" style="edgeStyle=orthogonalEdgeStyle;rounded=0;orthogonalLoop=1;jettySize=auto;html=1;" edge="1" parent="1" source="ZduUOEguYwG-LgPa66Ty-49" target="ZduUOEguYwG-LgPa66Ty-55">
          <mxGeometry relative="1" as="geometry" />
        </mxCell>
        <mxCell id="ZduUOEguYwG-LgPa66Ty-49" value="是否有回调url" style="rhombus;whiteSpace=wrap;html=1;rounded=0;" vertex="1" parent="1">
          <mxGeometry x="290" y="877.5" width="80" height="80" as="geometry" />
        </mxCell>
        <mxCell id="ZduUOEguYwG-LgPa66Ty-50" value="" style="edgeStyle=orthogonalEdgeStyle;rounded=0;orthogonalLoop=1;jettySize=auto;html=1;" edge="1" parent="1" source="ZduUOEguYwG-LgPa66Ty-37" target="ZduUOEguYwG-LgPa66Ty-49">
          <mxGeometry relative="1" as="geometry" />
        </mxCell>
        <mxCell id="ZduUOEguYwG-LgPa66Ty-51" value="鉴权成功" style="text;html=1;align=center;verticalAlign=middle;resizable=0;points=[];autosize=1;strokeColor=none;fillColor=none;" vertex="1" parent="1">
          <mxGeometry x="265" y="845" width="70" height="30" as="geometry" />
        </mxCell>
        <mxCell id="ZduUOEguYwG-LgPa66Ty-54" value="无" style="text;html=1;align=center;verticalAlign=middle;resizable=0;points=[];autosize=1;strokeColor=none;fillColor=none;" vertex="1" parent="1">
          <mxGeometry x="290" y="955" width="40" height="30" as="geometry" />
        </mxCell>
        <mxCell id="ZduUOEguYwG-LgPa66Ty-60" style="edgeStyle=orthogonalEdgeStyle;rounded=0;orthogonalLoop=1;jettySize=auto;html=1;exitX=0.5;exitY=0;exitDx=0;exitDy=0;entryX=0.5;entryY=1;entryDx=0;entryDy=0;" edge="1" parent="1" source="ZduUOEguYwG-LgPa66Ty-58" target="ZduUOEguYwG-LgPa66Ty-9">
          <mxGeometry relative="1" as="geometry" />
        </mxCell>
        <mxCell id="ZduUOEguYwG-LgPa66Ty-58" value="是否有其它&lt;br&gt;担保人" style="rhombus;whiteSpace=wrap;html=1;rounded=0;" vertex="1" parent="1">
          <mxGeometry x="170" y="760" width="80" height="80" as="geometry" />
        </mxCell>
        <mxCell id="ZduUOEguYwG-LgPa66Ty-59" value="" style="edgeStyle=orthogonalEdgeStyle;rounded=0;orthogonalLoop=1;jettySize=auto;html=1;" edge="1" parent="1" source="ZduUOEguYwG-LgPa66Ty-55" target="ZduUOEguYwG-LgPa66Ty-58">
          <mxGeometry relative="1" as="geometry" />
        </mxCell>
        <mxCell id="ZduUOEguYwG-LgPa66Ty-61" value="有" style="text;html=1;align=center;verticalAlign=middle;resizable=0;points=[];autosize=1;strokeColor=none;fillColor=none;" vertex="1" parent="1">
          <mxGeometry x="170" y="415" width="40" height="30" as="geometry" />
        </mxCell>
        <mxCell id="ZduUOEguYwG-LgPa66Ty-73" value="后端" style="shape=umlLifeline;perimeter=lifelinePerimeter;whiteSpace=wrap;html=1;container=1;collapsible=0;recursiveResize=0;outlineConnect=0;" vertex="1" parent="1">
          <mxGeometry x="550" y="1200" width="100" height="700" as="geometry" />
        </mxCell>
        <mxCell id="ZduUOEguYwG-LgPa66Ty-74" value="" style="html=1;points=[];perimeter=orthogonalPerimeter;fillColor=#808080;" vertex="1" parent="ZduUOEguYwG-LgPa66Ty-73">
          <mxGeometry x="45" y="190" width="10" height="120" as="geometry" />
        </mxCell>
        <mxCell id="ZduUOEguYwG-LgPa66Ty-75" value="前端" style="shape=umlLifeline;perimeter=lifelinePerimeter;whiteSpace=wrap;html=1;container=1;collapsible=0;recursiveResize=0;outlineConnect=0;" vertex="1" parent="1">
          <mxGeometry x="410" y="1200" width="100" height="380" as="geometry" />
        </mxCell>
        <mxCell id="ZduUOEguYwG-LgPa66Ty-76" value="" style="html=1;points=[];perimeter=orthogonalPerimeter;" vertex="1" parent="ZduUOEguYwG-LgPa66Ty-75">
          <mxGeometry x="45" y="190" width="10" height="160" as="geometry" />
        </mxCell>
        <mxCell id="ZduUOEguYwG-LgPa66Ty-106" value="点击签署合同" style="html=1;points=[];perimeter=orthogonalPerimeter;" vertex="1" parent="ZduUOEguYwG-LgPa66Ty-75">
          <mxGeometry x="10" y="97" width="80" height="40" as="geometry" />
        </mxCell>
        <mxCell id="ZduUOEguYwG-LgPa66Ty-77" value="统一鉴权" style="shape=umlLifeline;perimeter=lifelinePerimeter;whiteSpace=wrap;html=1;container=1;collapsible=0;recursiveResize=0;outlineConnect=0;" vertex="1" parent="1">
          <mxGeometry x="690" y="1200" width="100" height="360" as="geometry" />
        </mxCell>
        <mxCell id="ZduUOEguYwG-LgPa66Ty-78" value="" style="html=1;points=[];perimeter=orthogonalPerimeter;fillColor=#808080;" vertex="1" parent="ZduUOEguYwG-LgPa66Ty-77">
          <mxGeometry x="45" y="300" width="10" height="60" as="geometry" />
        </mxCell>
        <mxCell id="ZduUOEguYwG-LgPa66Ty-79" value="" style="endArrow=classic;html=1;rounded=0;" edge="1" parent="1">
          <mxGeometry relative="1" as="geometry">
            <mxPoint x="465" y="1440" as="sourcePoint" />
            <mxPoint x="595" y="1440" as="targetPoint" />
          </mxGeometry>
        </mxCell>
        <mxCell id="ZduUOEguYwG-LgPa66Ty-80" value="查询鉴权URL" style="edgeLabel;resizable=0;html=1;align=center;verticalAlign=middle;" connectable="0" vertex="1" parent="ZduUOEguYwG-LgPa66Ty-79">
          <mxGeometry relative="1" as="geometry">
            <mxPoint x="3" as="offset" />
          </mxGeometry>
        </mxCell>
        <mxCell id="ZduUOEguYwG-LgPa66Ty-81" value="" style="endArrow=classic;html=1;rounded=0;exitX=0.5;exitY=0.75;exitDx=0;exitDy=0;exitPerimeter=0;" edge="1" parent="1">
          <mxGeometry relative="1" as="geometry">
            <mxPoint x="600" y="1470" as="sourcePoint" />
            <mxPoint x="465" y="1470" as="targetPoint" />
          </mxGeometry>
        </mxCell>
        <mxCell id="ZduUOEguYwG-LgPa66Ty-82" value="返回鉴权URL" style="edgeLabel;resizable=0;html=1;align=center;verticalAlign=middle;" connectable="0" vertex="1" parent="ZduUOEguYwG-LgPa66Ty-81">
          <mxGeometry relative="1" as="geometry" />
        </mxCell>
        <mxCell id="ZduUOEguYwG-LgPa66Ty-83" value="" style="endArrow=classic;html=1;rounded=0;exitX=1.1;exitY=0.837;exitDx=0;exitDy=0;exitPerimeter=0;" edge="1" parent="1">
          <mxGeometry relative="1" as="geometry">
            <mxPoint x="466" y="1536.0300000000002" as="sourcePoint" />
            <mxPoint x="739.5" y="1536.0300000000002" as="targetPoint" />
          </mxGeometry>
        </mxCell>
        <mxCell id="ZduUOEguYwG-LgPa66Ty-84" value="跳转鉴权URL" style="edgeLabel;resizable=0;html=1;align=center;verticalAlign=middle;" connectable="0" vertex="1" parent="ZduUOEguYwG-LgPa66Ty-83">
          <mxGeometry relative="1" as="geometry" />
        </mxCell>
        <mxCell id="ZduUOEguYwG-LgPa66Ty-85" value="" style="html=1;points=[];perimeter=orthogonalPerimeter;fillColor=#808080;" vertex="1" parent="1">
          <mxGeometry x="735" y="1610" width="10" height="70" as="geometry" />
        </mxCell>
        <mxCell id="ZduUOEguYwG-LgPa66Ty-86" value="" style="edgeStyle=orthogonalEdgeStyle;rounded=0;orthogonalLoop=1;jettySize=auto;html=1;" edge="1" parent="1" source="ZduUOEguYwG-LgPa66Ty-78" target="ZduUOEguYwG-LgPa66Ty-85">
          <mxGeometry relative="1" as="geometry" />
        </mxCell>
        <mxCell id="ZduUOEguYwG-LgPa66Ty-95" value="" style="edgeStyle=orthogonalEdgeStyle;rounded=0;orthogonalLoop=1;jettySize=auto;html=1;" edge="1" parent="1" source="ZduUOEguYwG-LgPa66Ty-90" target="ZduUOEguYwG-LgPa66Ty-94">
          <mxGeometry relative="1" as="geometry" />
        </mxCell>
        <mxCell id="ZduUOEguYwG-LgPa66Ty-90" value="" style="html=1;points=[];perimeter=orthogonalPerimeter;" vertex="1" parent="1">
          <mxGeometry x="455" y="1600" width="10" height="70" as="geometry" />
        </mxCell>
        <mxCell id="ZduUOEguYwG-LgPa66Ty-91" value="" style="edgeStyle=orthogonalEdgeStyle;rounded=0;orthogonalLoop=1;jettySize=auto;html=1;" edge="1" parent="1" source="ZduUOEguYwG-LgPa66Ty-76" target="ZduUOEguYwG-LgPa66Ty-90">
          <mxGeometry relative="1" as="geometry" />
        </mxCell>
        <mxCell id="ZduUOEguYwG-LgPa66Ty-92" value="" style="endArrow=classic;html=1;rounded=0;exitX=0.1;exitY=0.433;exitDx=0;exitDy=0;exitPerimeter=0;entryX=0.9;entryY=0.571;entryDx=0;entryDy=0;entryPerimeter=0;" edge="1" parent="1" source="ZduUOEguYwG-LgPa66Ty-85" target="ZduUOEguYwG-LgPa66Ty-90">
          <mxGeometry relative="1" as="geometry">
            <mxPoint x="580" y="1660" as="sourcePoint" />
            <mxPoint x="500" y="1660" as="targetPoint" />
          </mxGeometry>
        </mxCell>
        <mxCell id="ZduUOEguYwG-LgPa66Ty-93" value="鉴权结束回跳" style="edgeLabel;resizable=0;html=1;align=center;verticalAlign=middle;" connectable="0" vertex="1" parent="ZduUOEguYwG-LgPa66Ty-92">
          <mxGeometry relative="1" as="geometry" />
        </mxCell>
        <mxCell id="ZduUOEguYwG-LgPa66Ty-97" value="" style="edgeStyle=orthogonalEdgeStyle;rounded=0;orthogonalLoop=1;jettySize=auto;html=1;" edge="1" parent="1" source="ZduUOEguYwG-LgPa66Ty-94">
          <mxGeometry relative="1" as="geometry">
            <mxPoint x="460" y="1835" as="targetPoint" />
          </mxGeometry>
        </mxCell>
        <mxCell id="ZduUOEguYwG-LgPa66Ty-94" value="通过url接收参数&lt;br&gt;authStatus === &#39;7&#39;&lt;br&gt;代表鉴权成功" style="whiteSpace=wrap;html=1;" vertex="1" parent="1">
          <mxGeometry x="400" y="1720" width="120" height="50" as="geometry" />
        </mxCell>
        <mxCell id="ZduUOEguYwG-LgPa66Ty-104" value="" style="edgeStyle=orthogonalEdgeStyle;rounded=0;orthogonalLoop=1;jettySize=auto;html=1;exitX=0;exitY=0.5;exitDx=0;exitDy=0;" edge="1" parent="1" source="ZduUOEguYwG-LgPa66Ty-94" target="ZduUOEguYwG-LgPa66Ty-103">
          <mxGeometry relative="1" as="geometry">
            <mxPoint x="460" y="1915" as="sourcePoint" />
          </mxGeometry>
        </mxCell>
        <mxCell id="ZduUOEguYwG-LgPa66Ty-100" value="" style="html=1;points=[];perimeter=orthogonalPerimeter;fillColor=#808080;" vertex="1" parent="1">
          <mxGeometry x="595" y="1795" width="10" height="120" as="geometry" />
        </mxCell>
        <mxCell id="ZduUOEguYwG-LgPa66Ty-101" value="" style="endArrow=classic;html=1;rounded=0;" edge="1" parent="1">
          <mxGeometry relative="1" as="geometry">
            <mxPoint x="500" y="1870" as="sourcePoint" />
            <mxPoint x="600" y="1870" as="targetPoint" />
          </mxGeometry>
        </mxCell>
        <mxCell id="ZduUOEguYwG-LgPa66Ty-103" value="提示鉴权失败" style="whiteSpace=wrap;html=1;" vertex="1" parent="1">
          <mxGeometry x="240" y="1723" width="90" height="45" as="geometry" />
        </mxCell>
        <mxCell id="ZduUOEguYwG-LgPa66Ty-105" value="不等于7" style="text;html=1;align=center;verticalAlign=middle;resizable=0;points=[];autosize=1;strokeColor=none;fillColor=none;" vertex="1" parent="1">
          <mxGeometry x="330" y="1716" width="70" height="30" as="geometry" />
        </mxCell>
        <mxCell id="ZduUOEguYwG-LgPa66Ty-109" value="" style="edgeStyle=orthogonalEdgeStyle;rounded=0;orthogonalLoop=1;jettySize=auto;html=1;" edge="1" parent="1" source="ZduUOEguYwG-LgPa66Ty-106">
          <mxGeometry relative="1" as="geometry">
            <mxPoint x="460" y="1390" as="targetPoint" />
          </mxGeometry>
        </mxCell>
        <mxCell id="ZduUOEguYwG-LgPa66Ty-111" value="&lt;span style=&quot;font-size: 11px; background-color: rgb(255, 255, 255);&quot;&gt;提交协议签约&lt;/span&gt;" style="rounded=0;whiteSpace=wrap;html=1;" vertex="1" parent="1">
          <mxGeometry x="400" y="1840" width="120" height="50" as="geometry" />
        </mxCell>
        <mxCell id="ZduUOEguYwG-LgPa66Ty-114" style="edgeStyle=orthogonalEdgeStyle;rounded=0;orthogonalLoop=1;jettySize=auto;html=1;exitX=0.5;exitY=1;exitDx=0;exitDy=0;entryX=0;entryY=0.5;entryDx=0;entryDy=0;" edge="1" parent="1" source="ZduUOEguYwG-LgPa66Ty-112" target="ZduUOEguYwG-LgPa66Ty-111">
          <mxGeometry relative="1" as="geometry" />
        </mxCell>
        <mxCell id="ZduUOEguYwG-LgPa66Ty-112" value="未查到url&lt;br&gt;代表无需鉴权" style="whiteSpace=wrap;html=1;" vertex="1" parent="1">
          <mxGeometry x="310" y="1440" width="120" height="60" as="geometry" />
        </mxCell>
        <mxCell id="ZduUOEguYwG-LgPa66Ty-113" value="" style="edgeStyle=orthogonalEdgeStyle;rounded=0;orthogonalLoop=1;jettySize=auto;html=1;" edge="1" parent="1" source="ZduUOEguYwG-LgPa66Ty-76" target="ZduUOEguYwG-LgPa66Ty-112">
          <mxGeometry relative="1" as="geometry" />
        </mxCell>
      </root>
    </mxGraphModel>
  </diagram>
</mxfile>
